HIERARCHY
ROOT Hips
{
  OFFSET 76.347 92.6806 -49.6304
  CHANNELS 6 Xposition Yposition Zposition Zrotation Xrotation Yrotation
  JOINT RightUpLeg
  {
    OFFSET -9.2536 -1.56971 -0.009835
    CHANNELS 3 Zrotation Xrotation Yrotation
    JOINT RightLeg
    {
      OFFSET 0.003613 -41.8721 0.033096
      CHANNELS 3 Zrotation Xrotation Yrotation
      JOINT RightFoot
      {
        OFFSET 0.190023 -41.7536 -0.162077
        CHANNELS 3 Zrotation Xrotation Yrotation
        End Site
        {
          OFFSET 0 -7.69 17.5
        }
      }
    }
  }
  JOINT LeftUpLeg
  {
    OFFSET 9.25993 -1.60807 -0.003591
    CHANNELS 3 Zrotation Xrotation Yrotation
    JOINT LeftLeg
    {
      OFFSET 0.056181 -41.8768 -0.046918
      CHANNELS 3 Zrotation Xrotation Yrotation
      JOINT LeftFoot
      {
        OFFSET 0.206009 -42.0177 -0.454554
        CHANNELS 3 Zrotation Xrotation Yrotation
        End Site
        {
          OFFSET 0 -7.69 17.5
        }
      }
    }
  }
  JOINT Spine
  {
    OFFSET 0.055174 14.3087 0.014143
    CHANNELS 3 Zrotation Xrotation Yrotation
    JOINT Spine1
    {
      OFFSET 0.013927 9.70629 0.00545
      CHANNELS 3 Zrotation Xrotation Yrotation
      JOINT Spine2
      {
        OFFSET 0.014023 10.1242 0.014512
        CHANNELS 3 Zrotation Xrotation Yrotation
        JOINT Spine3
        {
          OFFSET 0.012086 9.7191 0.009001
          CHANNELS 3 Zrotation Xrotation Yrotation
          JOINT Neck
          {
            OFFSET 0.131707 10.3859 0.054297
            CHANNELS 3 Zrotation Xrotation Yrotation
            JOINT Head
            {
              OFFSET -0.005552 9.48088 0.122183
              CHANNELS 3 Zrotation Xrotation Yrotation
              End Site
              {
                OFFSET 0 15.95 0
              }
            }
          }
          JOINT RightShoulder
          {
            OFFSET -3.20137 6.92944 0.018295
            CHANNELS 3 Zrotation Xrotation Yrotation
            JOINT RightArm
            {
              OFFSET -12.7595 0.009634 0.00435
              CHANNELS 3 Zrotation Xrotation Yrotation
              JOINT RightForeArm
              {
                OFFSET -26.5076 -0.004773 -0.015002
                CHANNELS 3 Zrotation Xrotation Yrotation
                JOINT RightHand
                {
                  OFFSET -26.002 -5.9e-05 -0.011656
                  CHANNELS 3 Zrotation Xrotation Yrotation
                  JOINT RightHandThumb1
                  {
                    OFFSET -2.48905 0.190105 3.12053
                    CHANNELS 3 Zrotation Xrotation Yrotation
                    JOINT RightHandThumb2
                    {
                      OFFSET -3.68274 0 0
                      CHANNELS 3 Zrotation Xrotation Yrotation
                      JOINT RightHandThumb3
                      {
                        OFFSET -2.55832 0 0
                        CHANNELS 3 Zrotation Xrotation Yrotation
                        End Site
                        {
                          OFFSET -2.194 0 0
                        }
                      }
                    }
                  }
                  JOINT RightInHandIndex
                  {
                    OFFSET -3.22368 0.508421 1.97842
                    CHANNELS 3 Zrotation Xrotation Yrotation
                    JOINT RightHandIndex1
                    {
                      OFFSET -5.21684 -0.091368 0.999158
                      CHANNELS 3 Zrotation Xrotation Yrotation
                      JOINT RightHandIndex2
                      {
                        OFFSET -3.61937 0 0
                        CHANNELS 3 Zrotation Xrotation Yrotation
                        JOINT RightHandIndex3
                        {
                          OFFSET -2.0521 0 0
                          CHANNELS 3 Zrotation Xrotation Yrotation
                          End Site
                          {
                            OFFSET -1.805 0 0
                          }
                        }
                      }
                    }
                  }
                  JOINT RightInHandMiddle
                  {
                    OFFSET -3.38211 0.517263 0.756737
                    CHANNELS 3 Zrotation Xrotation Yrotation
                    JOINT RightHandMiddle1
                    {
                      OFFSET -5.17411 -0.084 0.313895
                      CHANNELS 3 Zrotation Xrotation Yrotation
                      JOINT RightHandMiddle2
                      {
                        OFFSET -3.94947 0 0
                        CHANNELS 3 Zrotation Xrotation Yrotation
                        JOINT RightHandMiddle3
                        {
                          OFFSET -2.47579 0 0
                          CHANNELS 3 Zrotation Xrotation Yrotation
                          End Site
                          {
                            OFFSET -1.975 0 0
                          }
                        }
                      }
                    }
                  }
                  JOINT RightInHandRing
                  {
                    OFFSET -3.36516 0.537895 -0.128947
                    CHANNELS 3 Zrotation Xrotation Yrotation
                    JOINT RightHandRing1
                    {
                      OFFSET -4.63474 -0.022105 -0.478947
                      CHANNELS 3 Zrotation Xrotation Yrotation
                      JOINT RightHandRing2
                      {
                        OFFSET -3.44238 0 0
                        CHANNELS 3 Zrotation Xrotation Yrotation
                        JOINT RightHandRing3
                        {
                          OFFSET -2.3881 0 0
                          CHANNELS 3 Zrotation Xrotation Yrotation
                          End Site
                          {
                            OFFSET -1.857 0 0
                          }
                        }
                      }
                    }
                  }
                  JOINT RightInHandPinky
                  {
                    OFFSET -3.16105 0.469368 -1.20179
                    CHANNELS 3 Zrotation Xrotation Yrotation
                    JOINT RightHandPinky1
                    {
                      OFFSET -4.14105 -0.022105 -1.09053
                      CHANNELS 3 Zrotation Xrotation Yrotation
                      JOINT RightHandPinky2
                      {
                        OFFSET -2.75653 0 0
                        CHANNELS 3 Zrotation Xrotation Yrotation
                        JOINT RightHandPinky3
                        {
                          OFFSET -1.74189 0 0
                          CHANNELS 3 Zrotation Xrotation Yrotation
                          End Site
                          {
                            OFFSET -1.645 0 0
                          }
                        }
                      }
                    }
                  }
                }
              }
            }
          }
          JOINT LeftShoulder
          {
            OFFSET 3.20143 6.91127 -0.000395
            CHANNELS 3 Zrotation Xrotation Yrotation
            JOINT LeftArm
            {
              OFFSET 12.7779 -0.028682 -0.037301
              CHANNELS 3 Zrotation Xrotation Yrotation
              JOINT LeftForeArm
              {
                OFFSET 26.4982 -0.116492 -0.017681
                CHANNELS 3 Zrotation Xrotation Yrotation
                JOINT LeftHand
                {
                  OFFSET 26.0046 -0.058588 -0.01331
                  CHANNELS 3 Zrotation Xrotation Yrotation
                  JOINT LeftHandThumb1
                  {
                    OFFSET 2.48905 0.190105 3.12053
                    CHANNELS 3 Zrotation Xrotation Yrotation
                    JOINT LeftHandThumb2
                    {
                      OFFSET 3.68274 0 0
                      CHANNELS 3 Zrotation Xrotation Yrotation
                      JOINT LeftHandThumb3
                      {
                        OFFSET 2.55832 0 0
                        CHANNELS 3 Zrotation Xrotation Yrotation
                        End Site
                        {
                          OFFSET 2.194 0 0
                        }
                      }
                    }
                  }
                  JOINT LeftInHandIndex
                  {
                    OFFSET 3.22368 0.508421 1.97842
                    CHANNELS 3 Zrotation Xrotation Yrotation
                    JOINT LeftHandIndex1
                    {
                      OFFSET 5.21684 -0.091368 0.999158
                      CHANNELS 3 Zrotation Xrotation Yrotation
                      JOINT LeftHandIndex2
                      {
                        OFFSET 3.61937 0 0
                        CHANNELS 3 Zrotation Xrotation Yrotation
                        JOINT LeftHandIndex3
                        {
                          OFFSET 2.0521 0 0
                          CHANNELS 3 Zrotation Xrotation Yrotation
                          End Site
                          {
                            OFFSET 1.805 0 0
                          }
                        }
                      }
                    }
                  }
                  JOINT LeftInHandMiddle
                  {
                    OFFSET 3.38211 0.517263 0.756737
                    CHANNELS 3 Zrotation Xrotation Yrotation
                    JOINT LeftHandMiddle1
                    {
                      OFFSET 5.17411 -0.084 0.313895
                      CHANNELS 3 Zrotation Xrotation Yrotation
                      JOINT LeftHandMiddle2
                      {
                        OFFSET 3.94947 0 0
                        CHANNELS 3 Zrotation Xrotation Yrotation
                        JOINT LeftHandMiddle3
                        {
                          OFFSET 2.47579 0 0
                          CHANNELS 3 Zrotation Xrotation Yrotation
                          End Site
                          {
                            OFFSET 1.975 0 0
                          }
                        }
                      }
                    }
                  }
                  JOINT LeftInHandRing
                  {
                    OFFSET 3.36516 0.537895 -0.128947
                    CHANNELS 3 Zrotation Xrotation Yrotation
                    JOINT LeftHandRing1
                    {
                      OFFSET 4.63474 -0.022105 -0.478947
                      CHANNELS 3 Zrotation Xrotation Yrotation
                      JOINT LeftHandRing2
                      {
                        OFFSET 3.44238 0 0
                        CHANNELS 3 Zrotation Xrotation Yrotation
                        JOINT LeftHandRing3
                        {
                          OFFSET 2.3881 0 0
                          CHANNELS 3 Zrotation Xrotation Yrotation
                          End Site
                          {
                            OFFSET 1.857 0 0
                          }
                        }
                      }
                    }
                  }
                  JOINT LeftInHandPinky
                  {
                    OFFSET 3.16105 0.469368 -1.20179
                    CHANNELS 3 Zrotation Xrotation Yrotation
                    JOINT LeftHandPinky1
                    {
                      OFFSET 4.14105 -0.022105 -1.09053
                      CHANNELS 3 Zrotation Xrotation Yrotation
                      JOINT LeftHandPinky2
                      {
                        OFFSET 2.75653 0 0
                        CHANNELS 3 Zrotation Xrotation Yrotation
                        JOINT LeftHandPinky3
                        {
                          OFFSET 1.74189 0 0
                          CHANNELS 3 Zrotation Xrotation Yrotation
                          End Site
                          {
                            OFFSET 1.645 0 0
                          }
                        }
                      }
                    }
                  }
                }
              }
            }
          }
        }
      }
    }
  }
}
MOTION
Frames: 3
Frame Time: 0.00833333
2.999894995089849772e+02 1.251959793543917180e-03 9.451563180758636162e-02 7.099561353223053650e-02 -8.598373720756516403e-02 5.469838771799938604e-01 -8.719322067491864781e-01 -1.145163029477129918e-01 -8.172715110523569582e-01 5.980680739387842643e-02 8.374646410655860185e-02 -6.634906278260022106e-02 7.317760562189186413e-02 -9.973824515362569865e-02 -7.092544897772118384e-02 -3.991102025636318329e-01 -1.562772490164074379e-01 -2.706660713710068999e-01 -9.458865398378735190e-02 -2.688958805873674085e-01 1.703940039254948358e-01 1.124783435838042911e-01 1.100857333375039188e-01 -3.877017544002506200e-01 1.478500993416606291e-01 -1.243649944935695112e-01 -8.822702606816895665e-02 7.253848609961546789e-03 3.935431625016924673e-01 5.269171628735087876e-02 4.204846993424698337e-02 -1.844032463808342737e-01 -4.410941830952747056e-02 -6.988218647688421159e-04 1.700105526122095909e-02 -4.617658918943606285e-03 6.368284431385921873e-02 2.494866797550288895e-01 -1.210533928425703842e-01 4.887177183249409584e-02 5.084140128862718599e-02 -1.533544016524286402e-01 5.260354037471446503e-02 -4.483743549516826937e-02 1.958905640139665671e-01 -1.149706198091338560e+00 6.502435794831027405e-01 4.198700848713686762e-01 -2.487877808205706032e+01 6.271718508269243930e-01 -2.516817560050531100e+01 3.754458173335719490e-02 -5.196176043833980462e-02 -2.330781431893200195e-01 0.000000000000000000e+00 0.000000000000000000e+00 0.000000000000000000e+00 6.272016940019825911e-16 1.698515408333831968e-15 0.000000000000000000e+00 -7.413584087445955645e-15 -3.129084767119471135e-15 0.000000000000000000e+00 1.434481691675188220e-15 -3.095345752469786305e-16 5.464715947986921751e-15 0.000000000000000000e+00 0.000000000000000000e+00 0.000000000000000000e+00 0.000000000000000000e+00 2.753376026543544520e-15 7.633779115831743511e-15 0.000000000000000000e+00 -4.602929988629182240e-15 9.751769463103836630e-17 1.434481691675188220e-15 -3.095345752469786305e-16 5.464715947986921751e-15 0.000000000000000000e+00 3.401284155493343712e-15 7.820990766156048014e-15 0.000000000000000000e+00 -3.878656371618690180e-15 3.914287471912642579e-15 0.000000000000000000e+00 -1.319294422759793569e-15 9.852976983921256346e-16 1.434481691675188220e-15 -3.095345752469786305e-16 5.464715947986921751e-15 0.000000000000000000e+00 0.000000000000000000e+00 0.000000000000000000e+00 0.000000000000000000e+00 -2.965405667575367171e-16 4.409014089880134047e-16 0.000000000000000000e+00 4.171011820171790609e-15 5.615494283354710754e-15 1.434481691675188220e-15 -3.095345752469786305e-16 5.464715947986921751e-15 0.000000000000000000e+00 0.000000000000000000e+00 0.000000000000000000e+00 0.000000000000000000e+00 2.164331263688424157e-16 -1.056581675856161466e-14 0.000000000000000000e+00 5.338367783809164383e-15 -6.045161726011670808e-16 2.423464145249531673e-02 5.615170459523904922e-02 1.120769833039276520e-01 5.098451750207679822e-01 7.353901334618155594e-02 -6.524773667562779877e-01 3.688379584903195285e-01 -1.282011053432587699e+00 6.370752987356514963e-01 -4.662937315425887519e+00 1.211747154911134272e+00 -4.457188818353091442e+00 0.000000000000000000e+00 0.000000000000000000e+00 0.000000000000000000e+00 -3.908672906652152353e-15 6.917198618906043116e-17 0.000000000000000000e+00 -1.788082707551717290e-15 5.691488723952558327e-16 0.000000000000000000e+00 -6.108658781260870079e-16 2.679004281560743616e-16 4.938224080873435924e-16 0.000000000000000000e+00 0.000000000000000000e+00 0.000000000000000000e+00 0.000000000000000000e+00 -2.579847895111263592e-15 -2.968287553799375008e-15 0.000000000000000000e+00 1.463396574153094414e-15 -6.810424567337259870e-15 -6.108658781260870079e-16 2.679004281560743616e-16 4.938224080873435924e-16 0.000000000000000000e+00 -4.139913436811278308e-15 1.000036419368515691e-15 0.000000000000000000e+00 -6.782122561678661870e-16 -4.775851629138463107e-15 0.000000000000000000e+00 -8.423841572344341023e-17 -5.034934441968058017e-15 -6.108658781260870079e-16 2.679004281560743616e-16 4.938224080873435924e-16 0.000000000000000000e+00 0.000000000000000000e+00 0.000000000000000000e+00 0.000000000000000000e+00 1.993297053376015841e-15 -1.719868455251962875e-17 0.000000000000000000e+00 1.386728687777902477e-15 -6.242816808082711164e-15 -6.108658781260870079e-16 2.679004281560743616e-16 4.938224080873435924e-16 0.000000000000000000e+00 0.000000000000000000e+00 0.000000000000000000e+00 0.000000000000000000e+00 2.447035431301909271e-15 -7.027111699861566352e-15 0.000000000000000000e+00 -7.899277327015169964e-16 -6.413267656879877437e-15
2.999943605305440997e+02 8.834715647250201281e-03 4.197675545484986365e-02 3.512604068329457097e-02 -3.789159952056907199e-02 2.550485554209843131e-01 -4.026145823313100891e-01 -4.672741857051048581e-02 -3.915340041807346960e-01 2.256212922263037615e-02 3.670086972908511574e-02 -1.872615854923586481e-02 3.678734708773406803e-02 -5.054750206579604332e-02 -3.324623294446888561e-02 -1.779599965901444425e-01 -6.427933575993952098e-02 -1.334272737768635864e-01 -3.711169955512595015e-02 -1.211877940962029637e-01 7.790242211029914376e-02 7.145051448664008209e-02 9.344308377712086389e-02 -1.641625101805854747e-01 1.007238458738965448e-01 -1.640148625341346644e-01 -6.313982246242488827e-02 -3.693124592530289477e-03 3.822467737947551902e-01 5.425908538899193445e-02 2.229805420588135134e-02 -1.721833633220562210e-01 -3.358757614461845009e-02 -6.577809028243768435e-04 6.793697144204066674e-03 -2.011252920631575580e-03 2.599509979495399914e-02 1.189268832732873621e-01 -6.347397465395268612e-02 2.087555707037800495e-02 2.145369212529740430e-02 -7.251160921048419028e-02 2.733232343400760281e-02 -2.418065064107808096e-02 7.847288029092309991e-02 -5.469611352701853058e-01 3.438512707028328341e-01 2.236111412640359730e-01 -4.556965980899983748e+01 1.029621146431847073e-01 -4.554099685859114999e+01 -3.404962885012463580e-02 1.190078188811829613e-01 -2.898911936789831389e-01 0.000000000000000000e+00 0.000000000000000000e+00 0.000000000000000000e+00 -9.640561455168745180e-16 2.535876888720403485e-16 0.000000000000000000e+00 -7.260651532475227674e-15 -2.789391232669411751e-15 0.000000000000000000e+00 9.033350273429211388e-16 5.405379927703939772e-16 3.426368590546086948e-15 0.000000000000000000e+00 0.000000000000000000e+00 0.000000000000000000e+00 0.000000000000000000e+00 1.606243690344194578e-15 3.581845494664642250e-15 0.000000000000000000e+00 -3.275635602626980689e-15 2.363794171993559766e-17 9.033350273429211388e-16 5.405379927703939772e-16 3.426368590546086948e-15 0.000000000000000000e+00 1.757740899084134932e-15 6.104405790767287232e-15 0.000000000000000000e+00 -1.268596729418732321e-15 1.535037244482823081e-15 0.000000000000000000e+00 -1.492201309506208405e-15 2.248947556326810042e-15 9.033350273429211388e-16 5.405379927703939772e-16 3.426368590546086948e-15 0.000000000000000000e+00 0.000000000000000000e+00 0.000000000000000000e+00 0.000000000000000000e+00 -1.744644059531903196e-16 3.895075471960192545e-15 0.000000000000000000e+00 3.935286233047093559e-15 3.040134487326074255e-15 9.033350273429211388e-16 5.405379927703939772e-16 3.426368590546086948e-15 0.000000000000000000e+00 0.000000000000000000e+00 0.000000000000000000e+00 0.000000000000000000e+00 -1.676862867275236245e-15 -7.566904982854494610e-15 0.000000000000000000e+00 2.776345247379360989e-15 -4.896613450177378406e-16 1.435380587943901193e-02 3.125775962545784825e-02 9.410864696909913840e-02 3.182645480828271700e-01 3.222590555763221731e-02 -4.013485208380724867e-01 1.425651057083599238e-01 -5.773476238351387124e-01 2.364550967874388121e-01 -2.352278510234782960e+00 7.850870708159615186e-01 -2.439046219539833693e+00 0.000000000000000000e+00 0.000000000000000000e+00 0.000000000000000000e+00 -5.251056066148926697e-15 1.122456631807472930e-15 0.000000000000000000e+00 -1.191392297176152087e-15 2.042653284459377027e-15 0.000000000000000000e+00 -9.329572201271657443e-16 1.353744673876000321e-17 4.569236553027358940e-16 0.000000000000000000e+00 0.000000000000000000e+00 0.000000000000000000e+00 0.000000000000000000e+00 -2.177833779288451644e-15 -2.313624677304742982e-15 0.000000000000000000e+00 1.496494277077330699e-15 -7.908012129889223122e-16 -9.329572201271657443e-16 1.353744673876000321e-17 4.569236553027358940e-16 0.000000000000000000e+00 -1.104511357160462460e-15 -6.985439325073505952e-16 0.000000000000000000e+00 2.606751664175742316e-16 -4.731174046746619281e-15 0.000000000000000000e+00 -2.638989449356883133e-16 -3.430206650599093306e-15 -9.329572201271657443e-16 1.353744673876000321e-17 4.569236553027358940e-16 0.000000000000000000e+00 0.000000000000000000e+00 0.000000000000000000e+00 0.000000000000000000e+00 1.539406473317709101e-15 -2.647784827585943854e-16 0.000000000000000000e+00 9.080372456663734493e-16 -1.922375750196010504e-15 -9.329572201271657443e-16 1.353744673876000321e-17 4.569236553027358940e-16 0.000000000000000000e+00 0.000000000000000000e+00 0.000000000000000000e+00 0.000000000000000000e+00 1.277410086202901817e-15 -4.669177584576459313e-15 0.000000000000000000e+00 -1.720052174279879761e-16 -3.666138418103450922e-15
3.000002956622808483e+02 1.348132426182949498e-02 -2.276573185699952429e-03 1.145601208012120547e-03 3.335757793916285970e-03 -7.880114091133275100e-03 1.774846270483351751e-02 1.115485139158001703e-02 -1.651643001580669137e-03 -6.909545921279036142e-03 -5.884119208020756157e-03 1.506612215536432160e-02 -1.814151820522673418e-04 -2.971835869244105876e-03 2.334115858725834252e-03 1.765957241970237887e-02 1.492725457811895293e-02 -2.717264943266379552e-03 1.062521267525311577e-02 1.045066518935094425e-02 -8.952268856962559279e-03 2.747052500658399288e-02 6.868510991136608790e-02 2.792190400073823325e-02 1.141176553505479987e-02 -3.503616024044461236e-02 2.178580336948563075e-03 -7.947345869984679539e-03 1.616544031470063258e-01 2.267546712161282521e-02 3.433609913893087735e-03 -1.197242735105948225e-01 -1.620312844097160365e-02 -4.272112025337892593e-04 -1.130392709940050569e-03 3.257089567138161533e-04 -5.673664031970766450e-03 3.008080214779420159e-03 -1.193478717735731512e-02 -3.046670829886679362e-03 -3.788234666331218199e-03 -2.968265258958708522e-03 3.654210195931135649e-03 -8.877354993290197116e-03 -1.927958848433471845e-02 1.511383469701529925e-02 3.742727267112503503e-02 3.123676870368774852e-02 -3.737517126023056591e+01 -2.926609733878845487e-01 -3.713512317355562686e+01 -7.099832669166487864e-02 2.269397923177400300e-01 -2.658512646664649148e-01 0.000000000000000000e+00 0.000000000000000000e+00 0.000000000000000000e+00 -2.109173490248219893e-15 -5.806394301093210427e-16 0.000000000000000000e+00 -5.398179148296697689e-15 -1.282726328301855723e-15 0.000000000000000000e+00 2.151748648226111808e-16 1.058493422792923720e-15 7.179719674484691898e-16 0.000000000000000000e+00 0.000000000000000000e+00 0.000000000000000000e+00 0.000000000000000000e+00 -2.697167749801055310e-16 -1.458418561581089264e-15 0.000000000000000000e+00 -9.709573264548596755e-16 -6.136235643200618027e-16 2.151748648226111808e-16 1.058493422792923720e-15 7.179719674484691898e-16 0.000000000000000000e+00 -4.656886301292864435e-17 2.669151855025503534e-15 0.000000000000000000e+00 1.216352672054198576e-15 -1.369318978257659010e-15 0.000000000000000000e+00 -1.438841075687682523e-15 2.461869645908229337e-15 2.151748648226111808e-16 1.058493422792923720e-15 7.179719674484691898e-16 0.000000000000000000e+00 0.000000000000000000e+00 0.000000000000000000e+00 0.000000000000000000e+00 -1.181079333490103046e-16 4.990408631083707944e-15 0.000000000000000000e+00 1.997651455578711676e-15 9.212942140934658556e-17 2.151748648226111808e-16 1.058493422792923720e-15 7.179719674484691898e-16 0.000000000000000000e+00 0.000000000000000000e+00 0.000000000000000000e+00 0.000000000000000000e+00 -2.422820874701429985e-15 -2.644456579458999394e-15 0.000000000000000000e+00 -2.925742288248371309e-16 8.010600173881777255e-17 3.716042808242561984e-04 6.798151202362047799e-03 3.753908461708173327e-02 2.919042685271151100e-02 -3.132157157400600189e-02 -2.276995455910600652e-02 -8.363967334826884203e-02 1.156064719701528493e-01 -1.558818982766345118e-01 -4.234928664891902950e-02 2.128718466428441702e-01 -2.807083952808840932e-01 0.000000000000000000e+00 0.000000000000000000e+00 0.000000000000000000e+00 -4.855775731595868933e-15 1.695398987534927293e-15 0.000000000000000000e+00 1.488434855094502256e-16 2.438788544214620930e-15 0.000000000000000000e+00 -7.643524820381849821e-16 -3.508132732291999736e-16 3.196593696830993559e-16 0.000000000000000000e+00 0.000000000000000000e+00 0.000000000000000000e+00 0.000000000000000000e+00 -8.842233904800291380e-16 -5.654562309639221666e-16 0.000000000000000000e+00 1.032954076939312386e-15 5.220164823568067500e-15 -7.643524820381849821e-16 -3.508132732291999736e-16 3.196593696830993559e-16 0.000000000000000000e+00 1.512019606695998030e-15 -1.806266586315413615e-15 0.000000000000000000e+00 7.091511442409966782e-16 -2.491627384114429775e-15 0.000000000000000000e+00 -2.681854519107199727e-16 -4.387627240547463422e-16 -7.643524820381849821e-16 -3.508132732291999736e-16 3.196593696830993559e-16 0.000000000000000000e+00 0.000000000000000000e+00 0.000000000000000000e+00 0.000000000000000000e+00 6.892098746465427207e-16 -2.636408885081740665e-16 0.000000000000000000e+00 1.839125753218592375e-16 2.619484909650177681e-15 -7.643524820381849821e-16 -3.508132732291999736e-16 3.196593696830993559e-16 0.000000000000000000e+00 0.000000000000000000e+00 0.000000000000000000e+00 0.000000000000000000e+00 -1.307825394289275801e-16 -9.869794331436657504e-16 0.000000000000000000e+00 3.512449107476754807e-16 1.019834995988154125e-16
